<svg width="24" height="24" viewBox="0 0 24 24" fill="none" xmlns="http://www.w3.org/2000/svg">
  <path d="M3 9.2C3 8.21 3.81 7.4 4.8 7.4H14.4C15.03 7.4 15.61 7.73 15.94 8.28L17.1 10.2H19.2C20.19 10.2 21 11.01 21 12V14.3C21 15.07 20.37 15.7 19.6 15.7H18.7C18.27 14.66 17.24 13.93 16.05 13.93C14.86 13.93 13.83 14.66 13.4 15.7H9.6C9.17 14.66 8.14 13.93 6.95 13.93C5.76 13.93 4.73 14.66 4.3 15.7H4.2C3.54 15.7 3 15.16 3 14.5V9.2Z" fill="#ffffff"/>
  <circle cx="6.95" cy="16.6" r="1.7" fill="#ffffff"/>
  <circle cx="16.05" cy="16.6" r="1.7" fill="#ffffff"/>
  <path d="M6.2 9.5H12.8" stroke="#111827" stroke-width="1.2" stroke-linecap="round"/>
</svg>